<svg width="189" height="1171" viewBox="0 0 189 1171" fill="none" xmlns="http://www.w3.org/2000/svg">
<path d="M267.15 134.625C184.753 184.412 104.046 248.744 50.858 348.871C-10.5945 464.571 -7.1944 570.395 17.3578 659.997C23.9513 684.008 32.1276 708.433 41.8546 733.073C51.5815 757.712 63.2411 782.208 76.6599 806.574C138.231 918.329 211.274 1036.71 306.392 1109.19C401.9 1182.03 541.061 1202.54 688.265 1103.57C816.118 1017.57 907.875 862.068 958.146 711.922C1023.44 516.895 1065.35 283.411 992.419 149.478C940.807 62.2348 858.053 10.8342 756.309 2.82477C632.797 -7.24262 496.486 21.4601 358.259 86.6413C327.822 100.431 297.384 116.461 267.15 134.625Z" fill="#89DAFF" fill-opacity="0.23"/>
<path d="M756.269 3.32312L756.27 3.32322C857.85 11.3197 940.456 62.6276 991.984 149.725C1028.38 216.56 1036.14 308.291 1026.62 407.742C1017.1 507.183 990.312 614.272 957.672 711.764C907.42 861.854 815.712 1017.24 687.986 1103.16C540.959 1202 402.032 1181.5 306.695 1108.79C211.67 1036.39 138.67 918.09 77.0978 806.333C63.6883 781.984 52.0381 757.507 42.3196 732.889C32.5989 708.266 24.4285 683.857 17.84 659.864C-6.68611 570.358 -10.0809 464.67 51.2996 349.105C104.428 249.091 185.049 184.817 267.408 135.054C297.626 116.899 328.046 100.878 358.465 87.0968L358.472 87.0936C496.638 21.9411 632.862 -6.73567 756.269 3.32312Z" stroke="black" stroke-opacity="0.2"/>
</svg>
